<svg width="44" height="35" viewBox="0 0 44 35" fill="none" xmlns="http://www.w3.org/2000/svg">
<path d="M11.115 9.62109L11.1149 9.62104L11.1092 9.63024C10.4583 10.6725 10.0891 11.8659 10.0378 13.0937L10.0052 13.875H10.7872H17.5138C17.895 13.875 18.2606 14.0265 18.5302 14.296C18.7998 14.5656 18.9513 14.9313 18.9513 15.3125V30.625C18.9513 32.6236 17.3249 34.25 15.3263 34.25H2.20125C1.82 34.25 1.45437 34.0985 1.18479 33.829C0.915205 33.5594 0.763755 33.1937 0.763755 32.8125V21.8754V21.875L0.770317 15.4905L0.770348 15.4597L0.767864 15.4291C0.751665 15.2293 0.361387 9.75825 4.2641 5.52226C7.14702 2.39687 11.5599 0.75 17.5138 0.75H18.9513V5.55186L17.7954 5.78331C14.6961 6.40317 12.3844 7.65224 11.115 9.62109ZM24.8328 15.4905L24.8328 15.4597L24.8304 15.4291C24.8142 15.2293 24.4239 9.75798 28.3269 5.52196C31.2098 2.39676 35.6226 0.75 41.5763 0.75H43.0138V5.55186L41.8579 5.78331C38.7586 6.40317 36.4469 7.65224 35.1775 9.62109L35.1774 9.62104L35.1717 9.63024C34.5208 10.6725 34.1516 11.8659 34.1003 13.0937L34.0677 13.875H34.8497H41.5763C41.9575 13.875 42.3231 14.0265 42.5927 14.296C42.8623 14.5656 43.0138 14.9312 43.0138 15.3125V30.625C43.0138 32.6236 41.3874 34.25 39.3888 34.25H26.2638C25.8825 34.25 25.5169 34.0986 25.2473 33.829C24.9777 33.5594 24.8263 33.1937 24.8263 32.8125V21.8758V21.875L24.8328 15.4905Z" stroke="#AB162C" stroke-width="1.5"/>
</svg>
