<svg width="17" height="16" viewBox="0 0 17 16" fill="none" xmlns="http://www.w3.org/2000/svg">
<g clip-path="url(#clip0_417_5037)">
<path d="M16.5 8C16.5 3.6 12.9 0 8.5 0C4.1 0 0.5 3.6 0.5 8C0.5 12 3.46 15.28 7.22 15.92V10.32H5.22V8H7.22V6.24C7.22 4.24 8.42 3.12 10.26 3.12C11.14 3.12 12.02 3.28 12.02 3.28V5.28H10.98C10.02 5.28 9.7 5.92 9.7 6.56V8H11.94L11.62 10.32H9.78V15.92C13.54 15.28 16.5 12 16.5 8Z" fill="#1877F2"/>
<path d="M11.6187 10.3201L11.9387 8.00012H9.69875V6.48012C9.69875 5.84012 10.0188 5.20012 10.9788 5.20012H12.0188V3.28012C12.0188 3.28012 11.1388 3.12012 10.2587 3.12012C8.41875 3.12012 7.21875 4.24012 7.21875 6.24012V8.00012H5.21875V10.3201H7.21875V15.9201C8.01875 16.0801 8.89875 16.0801 9.69875 15.9201V10.3201H11.6187Z" fill="white"/>
</g>
<defs>
<clipPath id="clip0_417_5037">
<rect width="16" height="16" fill="white" transform="translate(0.5)"/>
</clipPath>
</defs>
</svg>
