<svg width="17" height="16" viewBox="0 0 17 16" fill="none" xmlns="http://www.w3.org/2000/svg">
<g clip-path="url(#clip0_417_5029)">
<path d="M16.3402 8.19208C16.3402 7.55208 16.2762 7.04008 16.1482 6.52808H8.66016V9.47208H13.0762C13.0122 10.2401 12.5002 11.3281 11.4122 12.0961V12.2241L13.7802 14.0801H13.9722C15.4442 12.6721 16.3402 10.6241 16.3402 8.19208Z" fill="#2F80ED"/>
<path d="M8.65869 15.9999C10.8347 15.9999 12.6267 15.2959 13.9707 14.0799L11.4747 12.0959C10.7707 12.5439 9.87469 12.8639 8.72269 12.8639C6.61069 12.8639 4.81869 11.4559 4.17869 9.53589H4.11469L1.61869 11.4559L1.55469 11.5199C2.83469 14.2079 5.52269 15.9999 8.65869 15.9999Z" fill="#27AE60"/>
<path d="M4.11616 9.60005C3.92416 9.08805 3.86016 8.57605 3.86016 8.00005C3.86016 7.42405 3.98816 6.91205 4.11616 6.40005V6.27205L1.62016 4.35205L1.49216 4.41605C0.980156 5.50405 0.660156 6.72005 0.660156 8.00005C0.660156 9.28005 0.980156 10.4961 1.49216 11.5841L4.11616 9.60005Z" fill="#E2B93B"/>
<path d="M8.66019 3.07192C10.1322 3.07192 11.1562 3.71192 11.7322 4.28792L13.9722 2.11192C12.5642 0.831916 10.7722 0.0639163 8.59619 0.0639163C5.52419 -8.36886e-05 2.83619 1.79192 1.49219 4.41592L4.05219 6.39992C4.75619 4.47992 6.54819 3.07192 8.66019 3.07192Z" fill="#EB5757"/>
</g>
<defs>
<clipPath id="clip0_417_5029">
<rect width="15.68" height="16" fill="white" transform="translate(0.660156)"/>
</clipPath>
</defs>
</svg>
